# xmcd
#
# Track frame offsets: 
#        150
#        14381
#        25501
#        37058
#        48960
#        61725
#        73491
#        90999
#        105227
#        122511
#
# Disc length: 1822 seconds
#
# Revision: 0
# Processed by: cddbd v1.5.2PL0 Copyright (c) Steve Scherf et al.
# Submitted via: ExactAudioCopyFreeDBPlugin 1.0
#
DISCID=74071c0a
DTITLE=김트리오 - 제2집
DYEAR=1980
DGENRE=가요
TTITLE0=꽃띠여자
TTITLE1=나의 상록수
TTITLE2=똑딱 똑딱
TTITLE3=난 어떡해
TTITLE4=나의 등불
TTITLE5=사랑하고 있나봐
TTITLE6=춤과 노래로
TTITLE7=사랑은 영원히
TTITLE8=외롭지 않아
TTITLE9=그대여 안녕히
EXTD=
EXTT0=
EXTT1=
EXTT2=
EXTT3=
EXTT4=
EXTT5=
EXTT6=
EXTT7=
EXTT8=
EXTT9=
PLAYORDER=
